<svg height="250" width="200" stroke="#78BE20" fill="transparent">
    <!-- Gallows -->
    <line x1="20" y1="20" x2="140" y2="20" />
    <line x1="140" y1="20" x2="140" y2="50" />
    <line x1="60" y1="20" x2="60" y2="230" />
    <line x1="20" y1="230" x2="180" y2="230" />
    <!-- Head -->
    <circle cx="140" cy="70" r="20" />
    <!-- Open Eyes -->
    <circle stroke="transparent" cx="147.5" cy="67.5" r="3"/>
    <circle stroke="transparent" cx="132.5" cy="67.5" r="3"/>
    <!-- Dead Eyes -->
    <line stroke="transparent" x1="150" y1="70" x2="145" y2="65"/>
    <line stroke="transparent" x1="150" y1="65" x2="145" y2="70"/>
    <line stroke="transparent" x1="130" y1="65" x2="135" y2="70"/>
    <line stroke="transparent" x1="130" y1="70" x2="135" y2="65"/>
    <!-- Body -->
    <line x1="140" y1="90" x2="140" y2="150" />
    <!-- Arms -->
    <line x1="140" y1="120" x2="120" y2="100" />
    <line x1="140" y1="120" x2="160" y2="100" />
    <!-- Legs -->
    <line x1="140" y1="150" x2="120" y2="180" />
    <line x1="140" y1="150" x2="160" y2="180" />
</svg>
